<svg width="9" height="16" viewBox="0 0 9 16" fill="none" xmlns="http://www.w3.org/2000/svg">
<path d="M6.91952 3.12897H8.6478C8.83877 3.12897 8.99473 2.97221 8.99473 2.78024V0.438312C8.99473 0.255949 8.85469 0.105579 8.67327 0.0927814C8.12582 0.0543891 7.05001 0 6.27658 0C4.15044 0 2.76908 1.27974 2.76908 3.60568V5.91242H0.346931C0.15596 5.91242 0 6.06919 0 6.26115V8.69586C0 8.88782 0.15596 9.04459 0.346931 9.04459H2.76908V15.6513C2.76908 15.8432 2.92504 16 3.11601 16H5.53816C5.72913 16 5.88509 15.8432 5.88509 15.6513V9.04139H8.38363C8.55868 9.04139 8.70828 8.90702 8.72737 8.73105L8.99792 6.29634C9.0202 6.09158 8.86105 5.90922 8.65417 5.90922H5.88509V4.17197C5.88191 3.59608 6.3466 3.12897 6.91952 3.12897Z" fill="white"/>
</svg>
