<svg width="18" height="18" viewBox="0 0 18 18" fill="none" xmlns="http://www.w3.org/2000/svg">
<g clip-path="url(#clip0)">
<path d="M9.00302 4.37842C6.45077 4.37842 4.38452 6.44692 4.38452 8.99692C4.38452 11.5492 6.45302 13.6154 9.00302 13.6154C11.5553 13.6154 13.6215 11.5469 13.6215 8.99692C13.6215 6.44467 11.553 4.37842 9.00302 4.37842ZM9.00302 11.9947C7.34627 11.9947 6.00527 10.6529 6.00527 8.99692C6.00527 7.34092 7.34702 5.99917 9.00302 5.99917C10.659 5.99917 12.0008 7.34092 12.0008 8.99692C12.0015 10.6529 10.6598 11.9947 9.00302 11.9947Z" fill="white"/>
<path d="M12.7107 0.0575166C11.0547 -0.0197334 6.95299 -0.0159834 5.29549 0.0575166C3.83899 0.125767 2.55424 0.477516 1.51849 1.51327C-0.212507 3.24427 0.0087432 5.57677 0.0087432 8.99752C0.0087432 12.4985 -0.186257 14.777 1.51849 16.4818C3.25624 18.2188 5.62249 17.9915 9.00274 17.9915C12.4707 17.9915 13.6677 17.9938 14.894 17.519C16.5612 16.8718 17.8197 15.3815 17.9427 12.7048C18.0207 11.048 18.0162 6.94702 17.9427 5.28952C17.7942 2.12977 16.0985 0.213517 12.7107 0.0575166ZM15.332 15.3365C14.1972 16.4713 12.623 16.37 8.98099 16.37C5.23099 16.37 3.72724 16.4255 2.62999 15.3253C1.36624 14.0675 1.59499 12.0478 1.59499 8.98552C1.59499 4.84177 1.16974 1.85752 5.32849 1.64452C6.28399 1.61077 6.56524 1.59952 8.97049 1.59952L9.00424 1.62202C13.001 1.62202 16.1367 1.20352 16.325 5.36152C16.3677 6.31027 16.3775 6.59527 16.3775 8.99677C16.3767 12.7033 16.4472 14.216 15.332 15.3365Z" fill="white"/>
<path d="M13.8045 5.27544C14.4005 5.27544 14.8837 4.79224 14.8837 4.19619C14.8837 3.60014 14.4005 3.11694 13.8045 3.11694C13.2084 3.11694 12.7252 3.60014 12.7252 4.19619C12.7252 4.79224 13.2084 5.27544 13.8045 5.27544Z" fill="white"/>
</g>
<defs>
<clipPath id="clip0">
<rect width="18" height="18" fill="white"/>
</clipPath>
</defs>
</svg>
