<svg width="17" height="14" viewBox="0 0 17 14" fill="none" xmlns="http://www.w3.org/2000/svg">
<path d="M14.5228 0H2.02285C0.907031 0 0 0.965555 0 2.15337V11.2478C0 12.4356 0.907031 13.4012 2.02285 13.4012H14.5193C15.6352 13.4012 16.5422 12.4356 16.5422 11.2478V2.15701C16.5456 0.969199 15.6386 0 14.5228 0ZM15.6215 11.2478C15.6215 11.8927 15.1286 12.4174 14.5228 12.4174H2.02285C1.41702 12.4174 0.924144 11.8927 0.924144 11.2478V2.15701C0.924144 1.5121 1.41702 0.987417 2.02285 0.987417H14.5193C15.1252 0.987417 15.618 1.5121 15.618 2.15701V11.2478H15.6215Z" fill="#FFE3B5"/>
<path d="M10.4326 6.58762L14.4783 2.7254C14.6665 2.54322 14.6836 2.23351 14.5125 2.02947C14.3413 1.82907 14.0504 1.81085 13.8587 1.99303L8.27964 7.32362L7.19121 6.28884C7.18779 6.2852 7.18436 6.28155 7.18436 6.27791C7.1604 6.2524 7.13644 6.23054 7.10906 6.20868L2.68001 1.98939C2.48834 1.80721 2.19741 1.82542 2.02627 2.02947C1.85513 2.23351 1.87224 2.54322 2.06392 2.7254L6.15754 6.62041L2.08103 10.683C1.8962 10.8689 1.88593 11.1786 2.0605 11.379C2.15291 11.481 2.27613 11.5356 2.39935 11.5356C2.5123 11.5356 2.62525 11.4919 2.71424 11.4045L6.85236 7.28354L7.97502 8.35112C8.06401 8.43492 8.17354 8.475 8.28307 8.475C8.3926 8.475 8.50555 8.43128 8.59112 8.34748L9.74459 7.24711L13.8587 11.4081C13.9477 11.4992 14.0641 11.5429 14.1771 11.5429C14.3003 11.5429 14.4201 11.4919 14.5125 11.3899C14.687 11.1931 14.6802 10.8798 14.4954 10.694L10.4326 6.58762Z" fill="#FFE3B5"/>
</svg>
